<svg enable-background="new 0 0 576.1 524.9" height="301.68796" viewBox="0 0 576.1 524.9" width="331.468316" xmlns="http://www.w3.org/2000/svg"><g fill="#003671"><path d="m96.7 403.4h-12.5v40.2h-8.2v-40.2h-12.4v-6.2h33.1z"/><path d="m127 443.6h-7.6v-19c0-2.9-.3-5-.9-6.2-.9-1.9-2.5-2.8-4.7-2.8-3 0-4.9 1.4-5.9 4.1-.5 1.2-.7 3.3-.7 6v17.9h-7.7v-48.7h7.7v19.9c2.8-3.4 6.1-5.1 9.8-5.1 4.7 0 7.8 2.1 9.2 6.2.6 1.7.9 4.6.9 8.9v18.8z"/><path d="m158.4 426.8c0 .1-.3.3-.8.5-.5.3-.8.5-.8.6h-17.4c0 3.4.9 6 2.5 8 1.6 1.9 3.8 2.9 6.4 2.9 2.5 0 5-.9 7.5-2.7l2.1 4.6c-3.8 2.5-7.6 3.7-11.3 3.7-4.2 0-7.7-1.5-10.5-4.5-3.2-3.5-4.8-7.9-4.8-13.4 0-5 1.4-9.2 4.3-12.4 2.7-3 6.1-4.5 10.3-4.5 5.2 0 8.8 2.4 10.7 7.3 1.2 2.7 1.8 5.9 1.8 9.9m-6.8-3.3c0-.4 0-.9-.1-1.6-.3-5-2.2-7.5-5.6-7.5-4 0-6.2 3-6.4 9.1z"/><path d="m209.7 423.2c0 3.6-.2 6.4-.5 8.3-.3 1.7-1 3.5-1.9 5.2-2.8 5.2-7.5 7.8-14.2 7.8s-11.5-2.6-14.2-7.8c-1-1.9-1.6-4.1-1.9-6.8-.2-1.4-.2-3.8-.2-7.2v-25.5h8.1v24.7c0 3 .1 5.1.2 6.2.2 2.4.7 4.4 1.6 5.8 1.4 2.6 3.7 3.9 6.8 3.9 4 0 6.7-2 8-6.1.6-1.9.9-5.2.9-10.1v-24.5h7.2v26.1z"/><path d="m243.7 443.6h-7.6v-19c0-2.9-.3-5-.9-6.2-.9-1.9-2.5-2.8-4.7-2.8-3.2 0-5.2 1.5-6.1 4.6-.3 1.2-.5 3-.5 5.5v17.9h-7.7v-33.2h7.7v4.4c2.8-3.5 6.1-5.2 9.9-5.2 4.6 0 7.7 2.1 9.1 6.2.6 1.7.9 4.6.9 8.9v18.9z"/><path d="m258.3 400.2c0 1.4-.4 2.6-1.3 3.6-.8 1-1.9 1.5-3.1 1.5s-2.2-.5-3.1-1.4c-.9-1-1.3-2.1-1.3-3.4 0-1.5.4-2.8 1.2-3.8s1.9-1.4 3.2-1.4c1.2 0 2.3.5 3.1 1.4.9.9 1.3 2.1 1.3 3.5m-.5 43.4h-7.6v-33.2h7.6z"/><path d="m281.8 442.3c-2.7 1.4-5.3 2.1-7.8 2.1-3.4 0-5.9-1.3-7.4-3.9-1-1.6-1.4-4.5-1.4-8.6v-16.9h-4v-4.5h4v-8l7.6-1.9v10h7.6v4.5h-7.6v15.3c0 3.3.3 5.6.9 6.9s1.6 2 3.1 2c1.2 0 2.4-.4 3.6-1.1z"/><path d="m308.5 426.8c0 .1-.3.3-.8.5-.5.3-.8.5-.8.6h-17.4c0 3.4.9 6 2.5 8 1.6 1.9 3.8 2.9 6.4 2.9 2.5 0 5-.9 7.5-2.7l2.1 4.6c-3.8 2.5-7.6 3.7-11.3 3.7-4.2 0-7.7-1.5-10.5-4.5-3.2-3.5-4.8-7.9-4.8-13.4 0-5 1.4-9.2 4.3-12.4 2.7-3 6.1-4.5 10.3-4.5 5.2 0 8.8 2.4 10.7 7.3 1.2 2.7 1.7 5.9 1.8 9.9m-6.9-3.3c0-.4 0-.9-.1-1.6-.3-5-2.2-7.5-5.6-7.5-4 0-6.2 3-6.4 9.1z"/><path d="m341.4 443.6h-7.4v-4.9c-2.9 3.8-6.1 5.7-9.8 5.7-4 0-7.3-1.8-9.6-5.3-2.2-3.2-3.3-7.3-3.3-12.1 0-5 1.3-9.2 3.9-12.5s5.8-4.9 9.8-4.9c3.7 0 6.8 1.7 9.1 5.1v-19.9h7.4v48.8zm-7.4-17c0-3.6-.7-6.4-2-8.6-1.4-2.1-3.2-3.2-5.4-3.2s-3.9 1-5.2 3.1-1.9 4.9-1.9 8.6c0 3.8.7 6.9 2 9.2s3 3.5 5.2 3.5 4-1.2 5.4-3.5c1.2-2.3 1.9-5.3 1.9-9.1"/><path d="m385.6 431.4c0 3.8-1.3 6.9-3.9 9.4-2.6 2.4-6 3.7-10.2 3.7-4.4 0-8.4-1.5-12-4.4l3.1-5.6c2.8 2.5 5.6 3.7 8.3 3.7 1.9 0 3.4-.6 4.6-1.7s1.8-2.6 1.8-4.5c0-2.2-1.5-4.8-4.4-7.9-1.4-1.4-3.5-3.5-6.5-6.2-3.3-3.1-5-6.4-5-10 0-3.4 1.2-6.2 3.7-8.3 2.4-2.1 5.6-3.2 9.4-3.2 3.7 0 7.1 1.3 10.3 3.8l-3.1 5.1c-2.3-1.8-4.5-2.7-6.5-2.7-1.6 0-2.8.4-3.8 1.3-.9.9-1.4 2.1-1.4 3.5 0 1.8 1.2 3.9 3.7 6.2.9.8 3 2.8 6.2 6 3.8 3.7 5.7 7.6 5.7 11.8"/><path d="m407.3 442.3c-2.7 1.4-5.3 2.1-7.8 2.1-3.4 0-5.9-1.3-7.4-3.9-1-1.6-1.4-4.5-1.4-8.6v-16.9h-4v-4.5h4v-8l7.6-1.9v10h7.6v4.5h-7.6v15.3c0 3.3.3 5.6.9 6.9s1.6 2 3.2 2c1.2 0 2.4-.4 3.6-1.1z"/><path d="m434.5 443.6h-8.1c-.4-1.4-.7-2.9-.7-4.4-2.5 3.5-5.6 5.2-9.2 5.2-2.3 0-4.3-.9-5.9-2.8-1.6-1.8-2.4-4.1-2.4-6.9 0-4 1.8-7.2 5.3-9.6 2-1.4 4.6-2.5 7.7-3.3 1.3-.4 2.9-.8 4.8-1.3-.8-4-2.7-6-5.9-6-2.4 0-4.8 1.2-7.3 3.6l-2.5-4.1c3.3-3 7.2-4.5 11.4-4.5 4.5 0 7.8 1.5 9.7 4.5.7 1.2 1.2 2.3 1.5 3.6.3 1.4.4 3.6.4 6.4v8.9c0 4.8.4 8.4 1.2 10.7m-8.6-14.8v-3.2c-.6.2-1.6.5-3.1.9-4.9 1.4-7.4 3.7-7.4 7.1 0 1.4.4 2.6 1.1 3.5.8.9 1.7 1.4 2.8 1.4 1.4 0 2.7-.5 3.8-1.6 1-.9 1.7-2 2-3.3.6-1.7.9-3.3.8-4.8"/><path d="m456.6 442.3c-2.7 1.4-5.3 2.1-7.8 2.1-3.4 0-5.9-1.3-7.4-3.9-1-1.6-1.4-4.5-1.4-8.6v-16.9h-4v-4.5h4v-8l7.6-1.9v10h7.6v4.5h-7.6v15.3c0 3.3.3 5.6.9 6.9s1.6 2 3.1 2c1.2 0 2.4-.4 3.6-1.1z"/><path d="m483.2 426.8c0 .1-.3.3-.8.5-.5.3-.8.5-.8.6h-17.4c0 3.4.9 6 2.5 8 1.6 1.9 3.8 2.9 6.4 2.9 2.5 0 5-.9 7.5-2.7l2.1 4.6c-3.8 2.5-7.6 3.7-11.3 3.7-4.2 0-7.7-1.5-10.5-4.5-3.2-3.5-4.8-7.9-4.8-13.4 0-5 1.4-9.2 4.3-12.4 2.7-3 6.1-4.5 10.3-4.5 5.2 0 8.8 2.4 10.7 7.3 1.2 2.7 1.7 5.9 1.8 9.9m-6.8-3.3c0-.4 0-.9-.1-1.6-.3-5-2.2-7.5-5.6-7.5-4 0-6.2 3-6.4 9.1z"/><path d="m506 434.5c0 2.9-1 5.3-3.1 7.2-2 1.9-4.6 2.8-7.8 2.8-3.5 0-6.7-1.3-9.6-3.9l2.5-4.6c2.3 2.2 4.3 3.3 6.2 3.3 1.2 0 2.2-.4 3-1.1s1.1-1.7 1.1-3c0-1.1-.3-2-.9-2.9-.6-.8-2-2.1-4-3.9-2.1-1.7-3.5-3.1-4.2-4-1.3-1.7-2-3.6-2-5.7 0-2.7.9-4.9 2.8-6.6 1.8-1.7 4.2-2.6 7.1-2.6 3 0 5.8.9 8.3 2.7l-2.2 4.2c-1.5-1.2-3.1-1.9-4.8-1.9-1 0-1.9.3-2.6.9s-1 1.4-1 2.3c0 1.3 1.3 3.1 4 5.4 2.9 2.5 4.9 4.5 5.9 5.9.8 1.7 1.3 3.4 1.3 5.5"/><path d="m27.4 474.9c0 4.7-1.5 8.5-4.6 11.4s-7.1 4.4-12.1 4.4v-5.7c5.7-.5 8.6-3.5 8.6-9.2 0-3.5-1.1-5.8-3.4-7-1-.5-2.9-.8-5.6-.8h-2.3v40.2h-8v-46.5h10.7c2.9 0 4.9.1 6.1.3 2.2.3 4.1 1 5.7 2.1 3.3 2.5 4.9 6 4.9 10.8"/><path d="m31.1 459.5h7.6v48.8h-7.6z"/><path d="m69.2 508.3h-8.1c-.4-1.4-.7-2.9-.7-4.5-2.5 3.5-5.6 5.2-9.2 5.2-2.3 0-4.3-.9-5.9-2.8-1.6-1.8-2.4-4.1-2.4-6.9 0-4 1.8-7.2 5.3-9.6 2-1.4 4.6-2.5 7.7-3.3 1.3-.4 2.9-.8 4.8-1.3-.8-4-2.7-6-5.9-6-2.4 0-4.8 1.2-7.3 3.6l-2.5-4.1c3.4-3 7.2-4.5 11.4-4.5 4.5 0 7.8 1.5 9.7 4.5.7 1.2 1.2 2.3 1.5 3.6.3 1.4.4 3.6.4 6.4v8.9c.1 4.9.4 8.4 1.2 10.8m-8.5-14.9v-3.2c-.6.2-1.6.5-3.1.9-4.9 1.4-7.4 3.7-7.4 7.1 0 1.4.4 2.6 1.1 3.5.8.9 1.7 1.4 2.8 1.4 1.4 0 2.7-.5 3.8-1.6 1-.9 1.7-2 2-3.3.6-1.7.8-3.3.8-4.8"/><path d="m98.8 475.9-14 36.6c-1.8 4.7-3.5 7.9-5.1 9.4-2.1 2-5.1 3-9 3h-1.8v-5.9h1.5c1.8 0 3.2-.3 4.2-.8 1-.6 1.9-1.6 2.8-3.1s2.1-4.5 3.7-8.9l-11.2-30 7.5-1.7 7.4 23.4 8.1-23.4z"/><path d="m110.1 464.8c0 1.4-.4 2.6-1.3 3.6-.8 1-1.9 1.5-3.1 1.5s-2.2-.5-3.1-1.4-1.3-2.1-1.3-3.4c0-1.5.4-2.8 1.2-3.8s1.9-1.4 3.2-1.4c1.2 0 2.3.5 3.1 1.4.9.9 1.3 2.1 1.3 3.5m-.5 43.5h-7.6v-33.2h7.6z"/><path d="m143.6 508.3h-7.6v-19c0-2.9-.3-5-.9-6.2-.9-1.9-2.5-2.8-4.7-2.8-3.2 0-5.2 1.5-6.1 4.6-.3 1.2-.5 3-.5 5.5v17.9h-7.7v-33.2h7.7v4.4c2.8-3.5 6.1-5.2 9.9-5.2 4.6 0 7.7 2.1 9.1 6.2.6 1.7.9 4.6.9 8.9v18.9z"/><path d="m178.1 501.4c0 5-.2 8.4-.6 10.3-1.8 8.8-7 13.1-15.4 13.1-4.4 0-8.4-1.1-12.2-3.2l1.5-5.4c3.3 2 6.5 3 9.4 3 4.8 0 7.8-2.1 9.1-6.4.4-1.4.6-3.7.6-6.8v-2.6c-2.8 3.8-5.9 5.7-9.5 5.7-4.1 0-7.3-1.7-9.7-5.2-2.2-3.2-3.2-7.2-3.2-12 0-5 1.3-9.2 3.9-12.5s5.8-5 9.7-5c3.8 0 6.8 1.8 8.9 5.3v-4.5h7.5zm-7.5-10.1c0-3.7-.7-6.6-2-8.6-1.3-2.1-3.1-3.1-5.4-3.1-2.2 0-3.8 1-5.1 3.1-1.2 2.1-1.8 4.9-1.8 8.6 0 3.8.6 6.9 1.9 9.2s3 3.5 5.1 3.5c2.2 0 3.9-1.2 5.2-3.5 1.5-2.4 2.1-5.5 2.1-9.2"/><path d="m231.4 464.7-2.6 5.8c-3-1.9-5.9-2.9-8.7-2.9-4.4 0-7.9 1.6-10.6 4.7-2.7 3.2-4 7.4-4 12.6 0 5.1 1.4 9.3 4.1 12.6s6.3 5 10.8 5c3 0 5.9-.8 8.6-2.5l2.1 5.7c-3.6 2.3-7.6 3.4-11.9 3.4-6.5 0-11.9-2.2-16.1-6.6s-6.3-10.1-6.3-17.1 2.1-12.8 6.4-17.4 9.7-6.9 16.2-6.9c4.1-.1 8.1 1.1 12 3.6"/><path d="m259.4 508.3h-8.1c-.4-1.4-.7-2.9-.7-4.5-2.5 3.5-5.6 5.2-9.2 5.2-2.3 0-4.3-.9-5.9-2.8-1.6-1.8-2.4-4.1-2.4-6.9 0-4 1.8-7.2 5.3-9.6 2-1.4 4.6-2.5 7.7-3.3 1.3-.4 2.9-.8 4.8-1.3-.8-4-2.7-6-5.9-6-2.4 0-4.8 1.2-7.3 3.6l-2.5-4.1c3.3-3 7.2-4.5 11.4-4.5 4.5 0 7.8 1.5 9.7 4.5.7 1.2 1.2 2.3 1.5 3.6.3 1.4.4 3.6.4 6.4v8.9c.1 4.9.4 8.4 1.2 10.8m-8.5-14.9v-3.2c-.6.2-1.6.5-3.1.9-4.9 1.4-7.4 3.7-7.4 7.1 0 1.4.4 2.6 1.1 3.5.8.9 1.7 1.4 2.8 1.4 1.4 0 2.7-.5 3.8-1.6 1-.9 1.7-2 2-3.3.6-1.7.8-3.3.8-4.8"/><path d="m283.8 477.3-2.8 6.3c-1.7-.9-2.9-1.4-3.6-1.4-2.2 0-3.7 1.3-4.5 4-.5 1.6-.8 4.2-.8 7.9v14.1h-7.6v-33.2h7.6v5.8l1.1-2.1c1.5-3 3.3-4.5 5.3-4.5 1.6.1 3.3 1.1 5.3 3.1"/><path d="m313.4 508.3h-7.4v-4.9c-2.9 3.8-6.1 5.7-9.8 5.7-4 0-7.3-1.8-9.6-5.3-2.2-3.2-3.3-7.3-3.3-12.1 0-5 1.3-9.2 3.9-12.5s5.8-4.9 9.8-4.9c3.7 0 6.8 1.7 9.1 5.1v-19.9h7.4v48.8zm-7.4-17c0-3.6-.7-6.4-2-8.6-1.4-2.1-3.2-3.2-5.4-3.2s-3.9 1-5.2 3.1-1.9 4.9-1.9 8.6c0 3.8.7 6.9 2 9.2s3 3.5 5.2 3.5 4-1.2 5.4-3.5c1.2-2.3 1.9-5.4 1.9-9.1"/><path d="m366.9 464.7-2.6 5.8c-3-1.9-5.9-2.9-8.7-2.9-4.4 0-7.9 1.6-10.6 4.7-2.7 3.2-4 7.4-4 12.6 0 5.1 1.4 9.3 4.1 12.6s6.3 5 10.8 5c3 0 5.9-.8 8.6-2.5l2.1 5.7c-3.6 2.3-7.6 3.4-11.9 3.4-6.5 0-11.9-2.2-16.1-6.6s-6.3-10.1-6.3-17.1 2.1-12.8 6.4-17.4 9.7-6.9 16.2-6.9c4.2-.1 8.2 1.1 12 3.6"/><path d="m397.8 491.4c0 5.1-1.4 9.4-4.2 12.7s-6.4 5-10.8 5-8.1-1.6-10.9-4.9-4.2-7.5-4.2-12.7c0-5 1.4-9.2 4.3-12.4s6.5-4.8 11-4.8c4.3 0 7.8 1.6 10.7 4.9 2.7 3.2 4.1 7.3 4.1 12.2m-7.9.1c0-3.9-.6-6.9-1.9-9.1s-3-3.3-5.3-3.3c-2.2 0-3.9 1.1-5.2 3.4-1.3 2.2-1.9 5.2-1.9 9 0 4 .6 7.1 1.9 9.4s3 3.4 5.3 3.4c2.2 0 4-1.1 5.2-3.4s1.9-5.5 1.9-9.4"/><path d="m447.7 508.3h-7.5v-19.3c0-3-.3-5.1-1-6.3-.9-1.6-2.3-2.4-4.2-2.4-3.1 0-5 1.6-5.7 4.6-.2.9-.3 2.5-.3 4.8v18.6h-7.6v-19.1c0-3-.3-5.1-.9-6.3-.9-1.8-2.3-2.7-4.3-2.7-2.6 0-4.4 1.2-5.3 3.6-.4 1.1-.6 2.9-.6 5.6v18.9h-7.7v-33.2h7.7v4.4c2.5-3.5 5.6-5.2 9.5-5.2 3.8 0 6.6 1.7 8.4 5.2 3-3.5 6.4-5.2 10.1-5.2 4.1 0 6.9 1.8 8.6 5.5.7 1.7 1.1 4.7 1.1 9v19.5z"/><path d="m484 490.9c0 5.2-1.3 9.5-3.9 13-2.6 3.4-5.9 5.2-9.9 5.2-3.3 0-6.2-1.7-8.8-5.2v21.1h-7.5v-49.8h7.5v4.9c2.6-3.8 5.9-5.6 9.9-5.6 3.8 0 6.8 1.5 9.2 4.6 2.3 2.9 3.5 6.9 3.5 11.8m-8.2.4c0-3.6-.6-6.5-1.9-8.6s-3-3.2-5.1-3.2c-2.2 0-4 1.1-5.4 3.4-1.3 2.3-2 5.3-2 9s.7 6.6 2 8.7 3.1 3.2 5.4 3.2c2.4 0 4.3-1.5 5.6-4.4.9-2.2 1.4-5 1.4-8.1"/><path d="m512.6 508.3h-8.1c-.4-1.4-.7-2.9-.7-4.5-2.5 3.5-5.6 5.2-9.2 5.2-2.3 0-4.3-.9-5.9-2.8s-2.4-4.1-2.4-6.9c0-4 1.8-7.2 5.3-9.6 2-1.4 4.6-2.5 7.7-3.3 1.3-.4 2.9-.8 4.8-1.3-.8-4-2.7-6-5.9-6-2.4 0-4.8 1.2-7.3 3.6l-2.5-4.1c3.3-3 7.2-4.5 11.4-4.5 4.5 0 7.8 1.5 9.7 4.5.7 1.2 1.2 2.3 1.5 3.6.3 1.4.4 3.6.4 6.4v8.9c0 4.9.4 8.4 1.2 10.8m-8.6-14.9v-3.2c-.6.2-1.6.5-3.1.9-4.9 1.4-7.4 3.7-7.4 7.1 0 1.4.4 2.6 1.1 3.5.8.9 1.7 1.4 2.8 1.4 1.4 0 2.7-.5 3.8-1.6 1-.9 1.7-2 2-3.3.6-1.7.9-3.3.8-4.8"/><path d="m545.2 508.3h-7.6v-19c0-2.9-.3-5-.9-6.2-.9-1.9-2.5-2.8-4.7-2.8-3.2 0-5.2 1.5-6.1 4.6-.3 1.2-.5 3-.5 5.5v17.9h-7.7v-33.2h7.7v4.4c2.8-3.5 6.1-5.2 9.9-5.2 4.6 0 7.7 2.1 9.1 6.2.6 1.7.9 4.6.9 8.9v18.9z"/><path d="m576.1 475.9-14 36.6c-1.8 4.7-3.5 7.9-5.1 9.4-2.1 2-5.1 3-9 3h-1.8v-5.9h1.5c1.8 0 3.2-.3 4.2-.8 1-.6 1.9-1.6 2.8-3.1s2.1-4.5 3.7-8.9l-11.2-30 7.5-1.7 7.4 23.4 8.1-23.4z"/></g><path d="m183.2 264.3c5.5 8.8 13.1 15.1 22.9 18.9 9.7 3.7 17.3 3.4 22.7-1.1 5.5-4.5 8.3-12.8 8.3-24.9l.2-126.4c-19.3-6.1-41.4-13.5-62.1-21l-.2 123.5c0 11.9 2.7 22.2 8.2 31" fill="#dc2f34"/><path d="m155.3 303.4c-7-7.1-13.4-15.9-19.2-26.2-5.8-10.4-9.8-20.3-11.9-29.7-3.4-15.2-5.2-28.2-5.1-38.9l-.6-120.7c-11.4-5-19-8.9-20.4-11 7.5 11.3 19.9 218.8 13.4 224.8 2.8-2.6 35.4 8 71.8 21.7-.6-.3-1.2-.6-1.7-.9-10.5-5.7-19.3-12-26.3-19.1" fill="#dc2f34"/><path d="m279 279.4-1.1-137.7c4 1.7 8.9 1.8 8.9 1.8-.3 8.8.4 59.7.6 110.9.1 57.3-.3 115 .8 116-15.8-14.3-58.7-28.6-58-28.6 14.8-1 46.2 5.1 48.8-62.4" fill="#dc2f34"/><path d="m328.6 134.8c-19.4 6-33 9.6-34 8.8 1 .8 2 16.8 3 39.9 1.4-6.6 3.7-13.2 7.1-19.9 5.3-10.8 13.3-20.4 23.9-28.8" fill="#003671"/><path d="m352.7 282.8c6.1 6.8 14.8 8.6 26 5.5 8.4-2.4 14.9-6.4 19.4-12 4.5-5.7 6.8-11.4 6.8-17.1 0-5.5-2.2-9.8-6.5-12.8-4.4-3.1-14.4-4.3-30.2-3.7-25.8.9-44.2-2.4-55.3-10-6.9-4.7-11.6-11.1-14.3-19.2.6 20.4 1.2 42.9 1.6 64.3l45-15.9c1.3 9.7 3.7 16.7 7.5 20.9" fill="#003671"/><path d="m477.3 82.5c-1.4 2.2-29.4 12.6-63.1 24.2 7.2.4 13.4 1.9 18.7 4.5 12.8 6.4 20.5 20.2 23 41.4l-55.7 19.4c-1.5-9.1-4.6-15.2-9.4-18.1-4.8-3-11.3-3.3-19.6-.9-6.9 1.9-12 5-15.5 9.2s-5.2 8.6-5.2 13.2c0 3.4 1.4 6 4.3 7.8 2.8 2 9.4 2.7 19.8 2.2 25.7-1.2 44.2-.2 55.3 3 11.1 3.1 19.3 8.6 24.4 16.5s7.6 17.6 7.7 29.1c0 13.5-3.3 26.9-10 40.3-6.7 13.3-16.1 24.7-28.3 34-12.1 9.3-27.4 16.6-45.8 21.9-32.4 9.2-54.8 8.6-67.4-1.6-3.7-3.1-7-6.6-9.8-10.6.2 26.7-.1 46.1-1.1 47.7 3.4-5.6 174.8-71.6 178.4-68.8-3.5-3.1-4.3-208.9-.7-214.4" fill="#003671"/><path d="m279.5 93.5c-8.8 8.6-33 15.4-55.6 12.4-11.7-1.6-20.6-5.6-25.1-10.3-7.8-8.4-2.1-17.3 4.6-25.4 18.1-22.2 68.6-47.7 83.8-55.2.8-.4 1.4-1.8 1.8-3.1.4 1.2 1 2.6 1.8 3.1 15.1 7.5 65.7 32.9 83.8 55.1 6.7 8.2 12.4 17 4.6 25.4-4.4 4.8-13.3 8.8-25.1 10.3-22.6 3-46.8-3.7-55.6-12.4.4 15.4 15.1 24.4 39 29.1 50.6-20.4 120.8-46.2 129.6-46-13.9-.2-181.8-70.9-181.8-76.5 0 5.6-167.9 76.3-181.9 76.6 9-.2 81.2 26.4 131.9 46.9 26.9-4.3 43.7-13.4 44.2-30" fill="#4b6296"/><path d="m442.3 341.4v-15.2h-4.9v-2.7h13.5v2.7h-4.9v15.2zm29.6 0h-3.7v-12.5h-.1l-4.9 12.5h-2.2l-4.8-12.5h-.1v12.5h-3v-17.9h4.8l4.6 11.9 4.7-11.9h4.6v17.9z" fill="#003671"/></svg>